<svg width="120" height="30" viewBox="0 0 120 30" fill="none" xmlns="http://www.w3.org/2000/svg">
<g clip-path="url(#clip0_347_83)">
<path d="M0.177281 0.98757V-0.166278H-0.976562V0.98757H0.177281ZM15.9835 1.30195L15.7687 2.43562L15.7709 2.43603L15.9835 1.30195ZM18.743 2.14029L18.2405 3.17896L18.247 3.18205L18.743 2.14029ZM20.4197 3.36287L19.5297 4.09716L19.5397 4.10927L19.55 4.12111L20.4197 3.36287ZM21.293 4.8125L20.2086 5.20682L20.2101 5.21086L20.2116 5.21489L21.293 4.8125ZM21.6074 6.34945L20.4547 6.40069L20.4553 6.41436L20.4562 6.42797L21.6074 6.34945ZM21.6074 15.9555L20.4561 15.8787L20.4553 15.8909L20.4547 15.9031L21.6074 15.9555ZM20.4197 18.9246L19.5406 18.1773L19.5351 18.1838L19.5297 18.1903L20.4197 18.9246ZM18.743 20.1472L18.247 19.1054L18.2405 19.1085L18.743 20.1472ZM15.9835 20.9855L15.7709 19.8514L15.7687 19.8518L15.9835 20.9855ZM8.85762 21.2999V20.1461H7.70378V21.2999H8.85762ZM8.85762 28.845V29.9988H10.0115V28.845H8.85762ZM0.177281 28.845H-0.976562V29.9988H0.177281V28.845ZM8.85762 17.4924H7.70378V18.6463H8.85762V17.4924ZM12.9794 17.4924V18.6463H14.1333V17.4924H12.9794ZM12.9794 5.12688H14.1333V3.97303H12.9794V5.12688ZM8.85762 5.12688V3.97303H7.70378V5.12688H8.85762ZM0.177281 2.14142H11.8791V-0.166278H0.177281V2.14142ZM11.8791 2.14142C13.4661 2.14142 14.7571 2.24395 15.7687 2.43562L16.1983 0.16827C14.9976 -0.0592228 13.5523 -0.166278 11.8791 -0.166278V2.14142ZM15.7709 2.43603C16.8264 2.63395 17.64 2.88841 18.2405 3.17896L19.2456 1.10165C18.4023 0.693576 17.3762 0.389114 16.1961 0.167863L15.7709 2.43603ZM18.247 3.18205C18.8782 3.48264 19.2831 3.79824 19.5297 4.09716L21.3098 2.62858C20.7879 1.99601 20.075 1.49655 19.2391 1.09852L18.247 3.18205ZM19.55 4.12111C19.8623 4.47939 20.0757 4.84131 20.2086 5.20682L22.3774 4.41818C22.1377 3.75905 21.7689 3.15456 21.2894 2.60463L19.55 4.12111ZM20.2116 5.21489C20.3568 5.60506 20.4368 5.99903 20.4547 6.40069L22.7601 6.29822C22.7314 5.65198 22.6018 5.0213 22.3744 4.41012L20.2116 5.21489ZM20.4562 6.42797C20.4895 6.91674 20.5059 7.37949 20.5059 7.81657H22.8136C22.8136 7.32215 22.7951 6.80678 22.7586 6.27099L20.4562 6.42797ZM20.5059 7.81657V14.4709H22.8136V7.81657H20.5059ZM20.5059 14.4709C20.5059 14.9081 20.4895 15.3772 20.4561 15.8787L22.7587 16.0322C22.7951 15.4858 22.8136 14.9652 22.8136 14.4709H20.5059ZM20.4547 15.9031C20.4371 16.2908 20.3579 16.6794 20.2116 17.0726L22.3744 17.8774C22.6007 17.2691 22.7311 16.6448 22.76 16.0078L20.4547 15.9031ZM20.2116 17.0726C20.0784 17.4307 19.8619 17.7993 19.5406 18.1773L21.2989 19.6719C21.7694 19.1184 22.135 18.5206 22.3744 17.8774L20.2116 17.0726ZM19.5297 18.1903C19.2831 18.4892 18.8782 18.8048 18.247 19.1054L19.2391 21.1889C20.075 20.7909 20.7879 20.2914 21.3098 19.6589L19.5297 18.1903ZM18.2405 19.1085C17.64 19.3991 16.8264 19.6535 15.7709 19.8514L16.1961 22.1196C17.3762 21.8983 18.4023 21.5939 19.2456 21.1858L18.2405 19.1085ZM15.7687 19.8518C14.7571 20.0435 13.4661 20.1461 11.8791 20.1461V22.4538C13.5523 22.4538 14.9976 22.3467 16.1983 22.1192L15.7687 19.8518ZM11.8791 20.1461H8.85762V22.4538H11.8791V20.1461ZM7.70378 21.2999V28.845H10.0115V21.2999H7.70378ZM8.85762 27.6911H0.177281V29.9988H8.85762V27.6911ZM1.33113 28.845V0.98757H-0.976562V28.845H1.33113ZM8.85762 18.6463H12.9794V16.3386H8.85762V18.6463ZM14.1333 17.4924V5.12688H11.8256V17.4924H14.1333ZM12.9794 3.97303H8.85762V6.28074H12.9794V3.97303ZM7.70378 5.12688V17.4924H10.0115V5.12688H7.70378ZM41.1561 24.7057H40.0022V25.8595H41.1561V24.7057ZM45.278 24.7057V25.8595H46.4318V24.7057H45.278ZM45.278 0.98757V-0.166278H44.1241V0.98757H45.278ZM53.9583 0.98757H55.1121V-0.166278H53.9583V0.98757ZM53.4343 25.4741L54.4887 25.9428L54.4906 25.9385L54.4925 25.9342L53.4343 25.4741ZM47.4786 29.1768L47.2693 28.0421L47.264 28.0431L47.2587 28.0441L47.4786 29.1768ZM38.7983 29.1768L39.0203 28.0445L39.015 28.0434L39.0096 28.0425L38.7983 29.1768ZM35.8291 28.286L35.3319 29.3273L35.3378 29.3301L35.8291 28.286ZM33.9778 26.9936L33.1222 27.7677L33.1272 27.7733L33.1323 27.7788L33.9778 26.9936ZM32.9648 25.4741L31.8984 25.9146L31.9042 25.9288L31.9104 25.9428L32.9648 25.4741ZM32.5456 23.8673L31.3962 23.9673L31.3972 23.9797L31.3985 23.992L32.5456 23.8673ZM32.4758 0.98757V-0.166278H31.3219V0.98757H32.4758ZM41.1561 0.98757H42.3099V-0.166278H41.1561V0.98757ZM41.1561 25.8595H45.278V23.5518H41.1561V25.8595ZM46.4318 24.7057V0.98757H44.1241V24.7057H46.4318ZM45.278 2.14142H53.9583V-0.166278H45.278V2.14142ZM52.8045 0.98757V22.3653H55.1121V0.98757H52.8045ZM52.8045 22.3653C52.8045 22.7835 52.7783 23.2422 52.7239 23.7427L55.018 23.992C55.0801 23.4212 55.1121 22.8785 55.1121 22.3653H52.8045ZM52.7239 23.7427C52.6792 24.1533 52.5665 24.5762 52.3761 25.0141L54.4925 25.9342C54.7678 25.3009 54.9462 24.6525 55.018 23.992L52.7239 23.7427ZM52.3799 25.0055C52.2093 25.3894 51.9413 25.7879 51.5509 26.1979L53.2219 27.7894C53.763 27.2213 54.1936 26.6068 54.4887 25.9428L52.3799 25.0055ZM51.5509 26.1979C51.2108 26.5549 50.708 26.9097 49.9972 27.2393L50.9681 29.3328C51.8641 28.9173 52.6305 28.4104 53.2219 27.7894L51.5509 26.1979ZM49.9972 27.2393C49.3078 27.5591 48.4062 27.8323 47.2693 28.0421L47.6879 30.3115C48.9496 30.0788 50.0507 29.7583 50.9681 29.3328L49.9972 27.2393ZM47.2587 28.0441C46.1541 28.2586 44.7769 28.3723 43.1123 28.3723V30.68C44.8708 30.68 46.4044 30.5608 47.6986 30.3095L47.2587 28.0441ZM43.1123 28.3723C41.4717 28.3723 40.1125 28.2587 39.0203 28.0445L38.5763 30.3091C39.8593 30.5607 41.3762 30.68 43.1123 30.68V28.3723ZM39.0096 28.0425C37.8849 27.833 36.9966 27.5602 36.3204 27.242L35.3378 29.3301C36.2453 29.7571 37.3363 30.0782 38.587 30.3112L39.0096 28.0425ZM36.3264 27.2449C35.6406 26.9173 35.1541 26.5647 34.8233 26.2085L33.1323 27.7788C33.7097 28.4007 34.4575 28.9096 35.3319 29.3273L36.3264 27.2449ZM34.8334 26.2195C34.4609 25.8078 34.1956 25.4024 34.0192 25.0055L31.9104 25.9428C32.1998 26.5938 32.6098 27.2014 33.1222 27.7677L34.8334 26.2195ZM34.0313 25.0336C33.8486 24.5914 33.7383 24.1618 33.6927 23.7427L31.3985 23.992C31.4694 24.644 31.6386 25.2857 31.8984 25.9146L34.0313 25.0336ZM33.6951 23.7673C33.651 23.2601 33.6296 22.793 33.6296 22.3653H31.3219C31.3219 22.869 31.3471 23.4034 31.3962 23.9673L33.6951 23.7673ZM33.6296 22.3653V0.98757H31.3219V22.3653H33.6296ZM32.4758 2.14142H41.1561V-0.166278H32.4758V2.14142ZM40.0022 0.98757V24.7057H42.3099V0.98757H40.0022ZM78.1351 5.12688H79.2889V3.97303H78.1351V5.12688ZM74.0135 5.12688V3.97303H72.8597V5.12688H74.0135ZM74.0135 24.7057H72.8597V25.8595H74.0135V24.7057ZM78.1351 24.7057V25.8595H79.2889V24.7057H78.1351ZM78.1351 16.8637V15.7098H76.9812V16.8637H78.1351ZM86.8155 16.8637H87.9693V15.7098H86.8155V16.8637ZM86.7283 23.8673L85.5814 23.7427L85.5797 23.755L85.5791 23.7673L86.7283 23.8673ZM86.3089 25.4741L85.2508 25.0141L85.2485 25.0197L85.2462 25.0253L86.3089 25.4741ZM83.4099 28.286L82.9247 27.2393L82.9183 27.242L83.4099 28.286ZM80.4231 29.1768L80.2137 28.0421L80.2074 28.0433L80.201 28.0445L80.4231 29.1768ZM71.7428 29.1768L71.9649 28.0445L71.9597 28.0434L71.9545 28.0425L71.7428 29.1768ZM68.7566 28.286L68.2651 29.3301L68.2708 29.3328L68.7566 28.286ZM65.857 25.4741L64.7989 25.9342L64.8006 25.9385L64.8029 25.9428L65.857 25.4741ZM65.4203 5.93026L66.5672 6.0577L66.5678 6.05499L65.4203 5.93026ZM65.8397 4.34094L64.7851 3.87231L64.781 3.88218L64.7764 3.89212L65.8397 4.34094ZM66.8701 2.83891L66.0347 2.04315L66.0341 2.04366L66.8701 2.83891ZM68.7566 1.56393L69.2349 2.61382L69.2412 2.61092L69.2476 2.60795L68.7566 1.56393ZM71.7081 0.673193L71.497 -0.461146L71.4947 -0.460766L71.7081 0.673193ZM83.4099 1.56393L82.9247 2.61069L82.9304 2.61359L82.9368 2.61643L83.4099 1.56393ZM85.2964 2.83891L84.4506 3.62404L84.4553 3.62913L84.4599 3.63415L85.2964 2.83891ZM86.3089 4.34094L85.2462 4.78975L85.2503 4.7997L85.2549 4.80955L86.3089 4.34094ZM86.7283 5.93026L85.5791 6.03024L85.5803 6.04397L85.5814 6.0577L86.7283 5.93026ZM86.8155 12.9688V14.1227H87.9693V12.9688H86.8155ZM78.1351 12.9688H76.9812V14.1227H78.1351V12.9688ZM78.1351 3.97303H74.0135V6.28074H78.1351V3.97303ZM72.8597 5.12688V24.7057H75.1674V5.12688H72.8597ZM74.0135 25.8595H78.1351V23.5518H74.0135V25.8595ZM79.2889 24.7057V16.8637H76.9812V24.7057H79.2889ZM78.1351 18.0175H86.8155V15.7098H78.1351V18.0175ZM85.6616 16.8637V22.3653H87.9693V16.8637H85.6616ZM85.6616 22.3653C85.6616 22.7835 85.6356 23.2422 85.5814 23.7427L87.8753 23.992C87.9376 23.4212 87.9693 22.8785 87.9693 22.3653H85.6616ZM85.5791 23.7673C85.5439 24.1685 85.4383 24.5829 85.2508 25.0141L87.3676 25.9342C87.6456 25.2941 87.8193 24.6373 87.8776 23.9673L85.5791 23.7673ZM85.2462 25.0253C85.0853 25.4059 84.8285 25.8013 84.4506 26.2085L86.1416 27.7788C86.6718 27.2079 87.0906 26.5902 87.3722 25.923L85.2462 25.0253ZM84.4506 26.2085C84.1258 26.5583 83.6343 26.9102 82.9247 27.2393L83.8956 29.3328C84.7928 28.9167 85.5583 28.407 86.1416 27.7788L84.4506 26.2085ZM82.9183 27.242C82.2439 27.5595 81.3508 27.8324 80.2137 28.0421L80.6326 30.3115C81.8943 30.0788 82.9922 29.7578 83.9014 29.3301L82.9183 27.242ZM80.201 28.0445C79.1101 28.2585 77.7393 28.3723 76.0743 28.3723V30.68C77.8327 30.68 79.3616 30.5608 80.6453 30.3091L80.201 28.0445ZM76.0743 28.3723C74.4214 28.3723 73.057 28.2586 71.9649 28.0445L71.5212 30.3091C72.8043 30.5607 74.3274 30.68 76.0743 30.68V28.3723ZM71.9545 28.0425C70.8295 27.833 69.933 27.5598 69.2418 27.2393L68.2708 29.3328C69.187 29.7576 70.2814 30.0782 71.5316 30.3112L71.9545 28.0425ZM69.2476 27.242C68.5501 26.9137 68.0608 26.5614 67.7331 26.2085L66.0422 27.7788C66.6226 28.4038 67.3795 28.9132 68.2651 29.3301L69.2476 27.242ZM67.7331 26.2085C67.3518 25.7978 67.0853 25.3959 66.9116 25.0055L64.8029 25.9428C65.0949 26.6003 65.5154 27.2114 66.0422 27.7788L67.7331 26.2085ZM66.9151 25.0141C66.7247 24.5762 66.6122 24.1533 66.5678 23.7427L64.2733 23.992C64.3455 24.6525 64.5237 25.3009 64.7989 25.9342L66.9151 25.0141ZM66.5678 23.7427C66.5129 23.2422 66.487 22.7835 66.487 22.3653H64.1793C64.1793 22.8785 64.2116 23.4212 64.2733 23.992L66.5678 23.7427ZM66.487 22.3653V7.41486H64.1793V22.3653H66.487ZM66.487 7.41486C66.487 6.99682 66.5129 6.5448 66.5672 6.0577L64.2739 5.80288C64.2116 6.36376 64.1793 6.9014 64.1793 7.41486H66.487ZM66.5678 6.05499C66.6128 5.63698 66.7224 5.2161 66.9024 4.78975L64.7764 3.89212C64.5145 4.5137 64.3443 5.15238 64.2733 5.80559L66.5678 6.05499ZM66.8943 4.80955C67.0662 4.42266 67.3299 4.02998 67.706 3.63415L66.0341 2.04366C65.5022 2.60261 65.0793 3.21129 64.7851 3.87231L66.8943 4.80955ZM67.7055 3.63466C68.0453 3.27827 68.5403 2.93047 69.2349 2.61382L68.2778 0.514034C67.3887 0.919285 66.6266 1.42147 66.0347 2.04315L67.7055 3.63466ZM69.2476 2.60795C69.9255 2.28906 70.8087 2.01642 71.9216 1.80715L71.4947 -0.460766C70.2554 -0.22758 69.1708 0.0936077 68.2651 0.519906L69.2476 2.60795ZM71.9193 1.80752C73.016 1.60325 74.3787 1.49519 76.0218 1.49519V-0.8125C74.2881 -0.8125 72.7755 -0.699327 71.497 -0.461146L71.9193 1.80752ZM76.0218 1.49519C77.7012 1.49519 79.0881 1.60341 80.1964 1.80789L80.6152 -0.461512C79.3252 -0.699486 77.7895 -0.8125 76.0218 -0.8125V1.49519ZM80.1964 1.80789C81.3335 2.01762 82.2353 2.29095 82.9247 2.61069L83.8956 0.517172C82.9778 0.0917125 81.877 -0.228785 80.6152 -0.461512L80.1964 1.80789ZM82.9368 2.61643C83.6424 2.93331 84.1293 3.27811 84.4506 3.62404L86.1416 2.05377C85.5549 1.42164 84.7841 0.916447 83.8829 0.511425L82.9368 2.61643ZM84.4599 3.63415C84.8331 4.02643 85.087 4.41259 85.2462 4.78975L87.3722 3.89212C87.0889 3.22135 86.6672 2.60616 86.1324 2.04366L84.4599 3.63415ZM85.2549 4.80955C85.4395 5.22454 85.5439 5.63018 85.5791 6.03024L87.8776 5.83034C87.8193 5.15919 87.6451 4.50526 87.3635 3.87231L85.2549 4.80955ZM85.5814 6.0577C85.6356 6.5448 85.6616 6.99682 85.6616 7.41486H87.9693C87.9693 6.9014 87.9376 6.36376 87.8753 5.80288L85.5814 6.0577ZM85.6616 7.41486V12.9688H87.9693V7.41486H85.6616ZM86.8155 11.815H78.1351V14.1227H86.8155V11.815ZM79.2889 12.9688V5.12688H76.9812V12.9688H79.2889ZM106.661 24.7057H105.507V25.8595H106.661V24.7057ZM110.783 24.7057V25.8595H111.937V24.7057H110.783ZM110.783 0.98757V-0.166278H109.629V0.98757H110.783ZM119.464 0.98757H120.617V-0.166278H119.464V0.98757ZM118.94 25.4741L119.994 25.9428L119.996 25.9385L119.998 25.9342L118.94 25.4741ZM112.984 29.1768L112.775 28.0421L112.769 28.0431L112.764 28.0441L112.984 29.1768ZM104.304 29.1768L104.525 28.0445L104.52 28.0434L104.515 28.0425L104.304 29.1768ZM101.334 28.286L100.837 29.3273L100.843 29.3301L101.334 28.286ZM99.4829 26.9936L98.6274 27.7677L98.6326 27.7733L98.6377 27.7788L99.4829 26.9936ZM98.4699 25.4741L97.4037 25.9146L97.4095 25.9288L97.4158 25.9428L98.4699 25.4741ZM98.051 23.8673L96.9012 23.9673L96.9024 23.9797L96.9035 23.992L98.051 23.8673ZM97.9812 0.98757V-0.166278H96.8274V0.98757H97.9812ZM106.661 0.98757H107.815V-0.166278H106.661V0.98757ZM106.661 25.8595H110.783V23.5518H106.661V25.8595ZM111.937 24.7057V0.98757H109.629V24.7057H111.937ZM110.783 2.14142H119.464V-0.166278H110.783V2.14142ZM118.31 0.98757V22.3653H120.617V0.98757H118.31ZM118.31 22.3653C118.31 22.7835 118.284 23.2422 118.229 23.7427L120.523 23.992C120.585 23.4212 120.617 22.8785 120.617 22.3653H118.31ZM118.229 23.7427C118.184 24.1533 118.072 24.5762 117.882 25.0141L119.998 25.9342C120.273 25.3009 120.451 24.6525 120.523 23.992L118.229 23.7427ZM117.885 25.0055C117.714 25.3894 117.447 25.7879 117.056 26.1979L118.727 27.7894C119.268 27.2213 119.699 26.6068 119.994 25.9428L117.885 25.0055ZM117.056 26.1979C116.716 26.5549 116.213 26.9097 115.502 27.2393L116.473 29.3328C117.369 28.9173 118.135 28.4104 118.727 27.7894L117.056 26.1979ZM115.502 27.2393C114.813 27.5591 113.911 27.8323 112.775 28.0421L113.193 30.3115C114.455 30.0788 115.556 29.7583 116.473 29.3328L115.502 27.2393ZM112.764 28.0441C111.659 28.2586 110.282 28.3723 108.617 28.3723V30.68C110.376 30.68 111.91 30.5608 113.204 30.3095L112.764 28.0441ZM108.617 28.3723C106.977 28.3723 105.618 28.2587 104.525 28.0445L104.082 30.3091C105.365 30.5607 106.881 30.68 108.617 30.68V28.3723ZM104.515 28.0425C103.39 27.833 102.502 27.5602 101.826 27.242L100.843 29.3301C101.75 29.7571 102.842 30.0782 104.092 30.3112L104.515 28.0425ZM101.832 27.2449C101.146 26.9173 100.659 26.5647 100.329 26.2085L98.6377 27.7788C99.2147 28.4007 99.963 28.9096 100.837 29.3273L101.832 27.2449ZM100.339 26.2195C99.9658 25.8078 99.701 25.4024 99.5245 25.0055L97.4158 25.9428C97.7049 26.5938 98.1151 27.2014 98.6274 27.7677L100.339 26.2195ZM99.5366 25.0336C99.3537 24.5914 99.2435 24.1618 99.1979 23.7427L96.9035 23.992C96.9745 24.644 97.1435 25.2857 97.4037 25.9146L99.5366 25.0336ZM99.2003 23.7673C99.1564 23.2601 99.1351 22.793 99.1351 22.3653H96.8274C96.8274 22.869 96.8522 23.4034 96.9012 23.9673L99.2003 23.7673ZM99.1351 22.3653V0.98757H96.8274V22.3653H99.1351ZM97.9812 2.14142H106.661V-0.166278H97.9812V2.14142ZM105.507 0.98757V24.7057H107.815V0.98757H105.507Z" fill="#2FF093"/>
</g>
<defs>
<clipPath id="clip0_347_83">
<rect width="120" height="30" fill="white"/>
</clipPath>
</defs>
</svg>
