<svg width="129" height="80" viewBox="0 0 129 80" fill="none" xmlns="http://www.w3.org/2000/svg">
<path d="M36.4124 53.3433C36.4377 53.4192 36.4419 53.474 36.425 53.5078L36.4883 53.318L36.4124 53.3433ZM29.5188 44.6785C28.2286 45.1085 27.3179 45.7915 26.7866 46.7276C27.3094 46.6095 27.71 46.5041 27.9882 46.4114C29.5315 45.897 30.2145 45.3742 30.0374 44.8429C29.97 44.6406 29.7971 44.5857 29.5188 44.6785ZM34.7682 45.5008C33.0225 49.0341 31.669 51.6356 30.7076 53.3052C32.2339 53.5835 33.9373 53.4655 35.8179 52.9512C35.6409 49.8901 35.291 47.4066 34.7682 45.5008ZM42.5732 28.8169C38.5505 37.4941 36.1302 42.6717 35.3121 44.3498C35.759 45.9436 36.1216 48.7601 36.3997 52.7994L36.6654 52.7109C37.2726 50.7376 37.6226 49.5528 37.7153 49.1565C37.7997 48.7349 38.2593 46.867 39.0942 43.553C41.5485 33.7964 42.7671 28.8928 42.7503 28.8422L42.5732 28.8169ZM30.0625 53.1408C31.454 50.7375 32.9382 47.8957 34.5152 44.6154C33.8828 42.718 32.8457 40.9134 31.4037 39.2015C30.5942 38.2064 29.7004 37.38 28.7222 36.7222C27.7609 36.0307 26.5972 35.5753 25.2311 35.356C23.8903 35.1282 22.4989 35.2547 21.0568 35.7353C18.2234 36.6797 17.3295 38.7204 18.3751 41.8574C18.8388 43.2488 19.8043 44.459 21.2716 45.4878C22.7642 46.5082 24.4127 46.9425 26.2174 46.7908C26.9848 45.3825 28.1654 44.4128 29.7592 43.8816C30.594 43.6033 31.0874 43.6919 31.2391 44.1473C31.3572 44.5015 31.1674 44.9863 30.6699 45.6019C30.1639 46.1922 29.4935 46.6264 28.6586 46.9047C27.8491 47.1745 27.107 47.3516 26.4324 47.4359C26.1203 48.2707 26.1077 49.1182 26.3944 49.9784C26.9087 51.5216 28.1314 52.5757 30.0625 53.1408ZM13.8714 60.0973C13.7365 59.6925 13.7914 59.2667 14.0359 58.8197C14.2973 58.3391 14.5799 57.9638 14.8834 57.694L15.3515 57.3272C15.7309 57.2007 15.9628 57.264 16.0472 57.5169C16.1315 57.7699 16.0219 57.9892 15.7183 58.1747C15.0858 58.5541 14.8539 58.9969 15.0225 59.5028C15.2671 60.2365 15.9838 60.4052 17.1729 60.0089C19.3991 59.2668 20.9929 58.2718 21.9543 57.0238C22.9326 55.7421 23.2319 54.532 22.8525 53.3935C22.5995 52.6346 22.0219 52.1244 21.1196 51.8629C20.2342 51.5678 18.9946 51.6858 17.4008 52.217C14.3903 53.2204 12.1387 54.772 10.646 56.8717C9.14493 58.9461 8.68107 60.8435 9.25445 62.5637C9.68448 63.854 10.688 64.7141 12.2649 65.1443C13.8418 65.5744 15.8066 65.3973 18.1594 64.6132C20.5121 63.829 22.5655 62.6105 24.3196 60.9577C26.0905 59.2712 27.8488 56.9565 29.5945 54.0135C27.6128 53.5497 26.3437 52.4829 25.7872 50.8132C25.433 49.7507 25.4668 48.6291 25.8885 47.4485C23.9574 47.4738 22.1654 46.9045 20.5126 45.7408C18.8767 44.5433 17.81 43.1982 17.3125 41.7056C16.8066 40.1877 16.8741 38.83 17.515 37.6326C18.1475 36.4099 19.4125 35.4823 21.3098 34.8499C23.8397 34.0067 26.4707 34.3947 29.2029 36.0138C31.9266 37.6077 33.8787 40.0912 35.0592 43.4643C36.1892 41.0357 37.9181 37.2832 40.2456 32.2068L43.2437 25.642C43.6653 24.7987 43.9521 24.3518 44.1038 24.3012C44.2809 24.2422 44.4243 24.2506 44.5339 24.3265C44.6688 24.394 44.7742 24.5415 44.8501 24.7692C44.9176 24.9716 44.8459 25.2204 44.6351 25.5155C44.4495 25.8022 43.9941 27.4297 43.2688 30.398C42.5604 33.3326 41.6664 37.0599 40.5869 41.5798C39.5242 46.066 38.6429 49.6203 37.9429 52.2429C39.3006 51.5936 40.671 50.645 42.054 49.397C42.4841 49.0006 42.7497 48.7856 42.8509 48.7519C42.9774 48.7097 43.0617 48.7519 43.1039 48.8784C43.1882 49.1314 43.049 49.3886 42.6864 49.65C41.3624 50.9064 39.7222 51.9731 37.7658 52.85C36.6948 56.805 35.9821 58.8415 35.628 58.9595C35.375 59.0438 35.2063 58.9595 35.122 58.7065C35.0377 58.4535 35.1347 57.9012 35.413 57.0495L35.919 55.2786L35.8811 53.5204C33.7054 54.1612 31.8333 54.3636 30.2649 54.1274C28.3505 57.4077 26.4615 59.9206 24.5978 61.6661C22.7342 63.4116 20.5374 64.706 18.0075 65.5492C15.4777 66.3924 13.3948 66.5526 11.7589 66.0297C10.1314 65.5321 9.0773 64.5623 8.59668 63.1203C7.93898 61.147 8.39441 58.9714 9.96297 56.5934C11.5568 54.207 13.9982 52.4657 17.287 51.3695C21.107 50.0963 23.3754 50.5348 24.0921 52.6852C24.48 53.8489 24.2439 55.038 23.3837 56.2522C22.5488 57.4581 21.5664 58.4321 20.4364 59.1741C19.3232 59.8824 18.2986 60.3926 17.3626 60.7046C15.3893 61.3623 14.2256 61.1598 13.8714 60.0973ZM45.6118 43.4888C46.4467 41.2711 47.3069 39.0448 48.1924 36.8102C49.0695 34.5502 49.5291 33.357 49.5713 33.2305C49.6387 33.0956 49.799 32.986 50.0519 32.9017C50.3302 32.8089 50.4947 32.8384 50.5453 32.9902L50.5832 33.1041C50.6338 33.2559 50.6085 33.3908 50.5073 33.5088C49.7483 34.9424 48.3357 38.4208 46.2695 43.9442C44.2034 49.4676 43.2757 52.5455 43.4865 53.178C43.6888 53.7852 44.0936 53.9876 44.7008 53.7852C44.9032 53.7177 45.211 53.5449 45.6242 53.2666C46.3241 52.6679 46.8048 52.1282 47.0662 51.6476C47.3192 51.1416 47.4837 50.876 47.5596 50.8507C47.6607 50.817 47.7366 50.876 47.7872 51.0278C47.8378 51.1796 47.7029 51.5337 47.3824 52.0903C47.0535 52.6215 46.5982 53.1528 46.0163 53.684C45.4344 54.2153 44.8652 54.5737 44.3086 54.7592C43.4738 55.0374 42.9256 54.7844 42.6643 54.0002C42.504 53.5195 42.7529 52.1998 43.4107 50.041C44.0601 47.857 44.7938 45.6729 45.6118 43.4888ZM48.3518 51.1769L48.4403 51.4425C50.9112 49.4103 51.9653 47.8503 51.6027 46.7625C51.4172 46.2059 50.9703 46.0457 50.2619 46.2818C49.5789 46.5094 49.0139 47.1756 48.5669 48.2803C48.1452 49.3765 48.0735 50.3421 48.3518 51.1769ZM52.4502 46.1427C52.9562 47.6606 51.6996 49.5411 48.6807 51.7841C49.077 52.2985 49.7305 52.4039 50.6413 52.1004C52.1845 51.586 53.441 50.4645 54.4108 48.7358C54.453 48.6093 54.512 48.5334 54.5879 48.5081C54.6891 48.4744 54.7692 48.5461 54.8282 48.7232C54.8788 48.875 54.7397 49.2165 54.4108 49.7477C54.0819 50.279 53.559 50.8608 52.8422 51.4933C52.1254 52.1257 51.3622 52.5768 50.5527 52.8467C48.8324 53.42 47.7614 53.0743 47.3398 51.8093C46.9941 50.7721 47.1628 49.5494 47.8459 48.1411C48.5543 46.7244 49.5157 45.8137 50.73 45.409C51.6154 45.1139 52.1889 45.3584 52.4502 46.1427ZM56.9099 47.4391C59.2627 44.2094 60.6289 42.5313 61.0084 42.4048C61.2108 42.3374 61.3288 42.3542 61.3625 42.4554C61.3794 42.506 61.215 42.7295 60.8692 43.1258C60.515 43.4968 59.2501 45.1412 57.0743 48.0589C57.4453 49.172 58.1368 49.5599 59.1488 49.2226C59.8824 48.9781 60.7257 48.0084 61.6787 46.3134C61.7208 46.1869 61.7799 46.111 61.8558 46.0857C61.9569 46.052 62.0286 46.0984 62.0708 46.2249C62.172 46.5285 61.8136 47.182 60.9956 48.1855C60.2028 49.1805 59.4017 49.8129 58.5922 50.0828C57.4031 50.4791 56.6358 50.1586 56.2901 49.1214L53.9625 52.2583C53.7095 52.3426 53.5662 52.3342 53.5325 52.233C53.4987 52.1318 53.5409 52.0053 53.659 51.8535L56.1256 48.5016C55.9402 47.186 56.0414 45.7187 56.4293 44.0997C56.5727 43.5178 56.6739 43.1889 56.733 43.1131C56.7667 42.9613 56.8594 42.8601 57.0112 42.8095C57.1883 42.7505 57.3022 42.7968 57.3528 42.9486C57.4034 43.1004 57.4033 43.2269 57.3528 43.3281C56.7456 44.5424 56.5979 45.9127 56.9099 47.4391ZM77.3545 22.8741C77.4051 23.0259 77.5696 23.0554 77.8479 22.9626C78.1261 22.8699 78.3538 22.5832 78.5309 22.1025C78.7249 21.5881 78.8008 21.0147 78.7587 20.3822C78.2949 20.846 77.9238 21.3351 77.6455 21.8495C77.3841 22.3302 77.2871 22.6717 77.3545 22.8741ZM78.7455 37.5471C78.6865 37.37 78.6275 37.2351 78.5685 37.1423C77.9275 38.0024 77.4468 38.7951 77.1264 39.5203C76.8312 40.2371 76.7342 40.7473 76.8354 41.0508C76.9113 41.2785 77.101 41.3418 77.4046 41.2406C77.9865 41.0467 78.4123 40.5533 78.6822 39.7607C78.9521 38.968 78.9732 38.2301 78.7455 37.5471ZM97.543 7.67042C96.2527 8.10046 94.9372 9.29787 93.5963 11.2627C93.8915 11.2205 94.3426 11.0982 94.9498 10.8959C95.5823 10.6851 96.3328 10.2382 97.2014 9.55513C98.07 8.8721 98.441 8.34085 98.3146 7.96138C98.2049 7.6325 97.9477 7.53551 97.543 7.67042ZM76.7094 23.7215C76.5661 23.2915 76.6715 22.6801 77.0257 21.8874C77.3799 21.0948 77.928 20.378 78.6701 19.7371C78.6533 19.6022 78.5985 19.3956 78.5057 19.1173C78.219 18.2572 77.7468 17.5572 77.0891 17.0175C75.3603 18.3246 74.1418 19.8972 73.4334 21.7355C72.7418 23.5401 72.6153 25.1002 73.0537 26.4157C73.3489 27.3012 73.8632 27.9168 74.5969 28.2625C75.3558 28.5999 76.3045 28.5788 77.4429 28.1994C78.9861 27.685 80.289 26.4075 81.3516 24.3668C82.4395 22.3177 82.7979 20.7365 82.4269 19.6234C82.1993 18.9403 81.6807 18.7337 80.8711 19.0035C80.4916 19.13 80.0405 19.3788 79.5176 19.7498C79.6188 20.728 79.4881 21.643 79.1254 22.4947C78.7797 23.3126 78.3159 23.8186 77.734 24.0125C77.1774 24.198 76.8359 24.101 76.7094 23.7215ZM68.6003 60.8718C69.6881 60.5092 70.7802 59.6955 71.8765 58.4306C72.9728 57.1657 73.9721 55.6942 74.8744 54.0161C75.8105 52.3549 76.793 50.2847 77.8218 47.8055C79.3398 44.1795 81.1572 39.3012 83.274 33.1706C83.3837 32.8249 83.468 32.5719 83.527 32.4117C81.8826 33.4657 80.4195 34.8107 79.1377 36.4466C79.2895 36.649 79.4033 36.8641 79.4792 37.0917C79.7743 37.9772 79.7195 38.909 79.3147 39.8872C78.9099 40.8654 78.2394 41.5105 77.3034 41.8224C76.6962 42.0248 76.321 41.911 76.1776 41.4809C76.0343 41.0508 76.1397 40.3973 76.4939 39.5203C76.8397 38.618 77.3921 37.6609 78.151 36.649C77.6029 36.1852 76.8356 36.1177 75.8489 36.4465C73.8503 37.1127 71.936 39.0015 70.1061 42.1132C68.2929 45.1911 66.9942 48.4208 66.2098 51.8023C65.4002 55.1922 65.2779 57.7347 65.8428 59.4297C66.315 60.8464 67.2342 61.3271 68.6003 60.8718ZM77.4559 16.0942C78.8727 15.0317 80.302 14.2601 81.744 13.7795C83.1861 13.2989 84.4974 12.9321 85.678 12.6791C86.8585 12.4262 88.3048 12.169 90.0166 11.9077C91.7538 11.6379 92.6603 11.4903 92.7362 11.465C94.4397 8.98584 96.1642 7.45535 97.9098 6.87354C98.8459 6.56156 99.4066 6.68385 99.5921 7.24041C99.8367 7.97407 99.3054 8.82576 97.9983 9.79549C96.6827 10.7399 95.6075 11.3513 94.7727 11.6295C93.9378 11.9078 93.3644 12.0848 93.0524 12.1607C92.2091 13.5099 91.2983 15.2892 90.32 17.4986C89.3671 19.6995 88.5617 21.7107 87.9039 23.5321C87.2376 25.3283 86.3521 27.7738 85.2474 30.8685C85.8039 30.5987 86.3731 30.3668 86.955 30.1729C88.7006 29.5911 89.6577 29.5532 89.8264 30.0591C89.8854 30.2362 89.839 30.3501 89.6872 30.4007C89.5607 30.4428 89.4427 30.4681 89.333 30.4765C89.2403 30.4512 89.1054 30.4259 88.9283 30.4006C88.3548 30.3669 87.6887 30.4765 86.9297 30.7294C86.196 30.974 85.5551 31.2438 85.007 31.5389C82.789 37.8719 81.4102 41.6623 80.8704 42.9104C80.3391 44.1837 79.7488 45.6172 79.0994 47.211C78.4585 48.8301 77.9188 50.036 77.4802 50.8286C77.0501 51.6466 76.5062 52.6711 75.8484 53.9023C75.2159 55.125 74.6298 56.0653 74.0901 56.723C73.5588 57.406 72.9727 58.1355 72.3318 58.9113C71.2102 60.2689 69.9031 61.1965 68.4105 61.6939C66.5384 62.3179 65.3115 61.7571 64.7297 60.0115C64.2659 58.6201 64.2617 56.6679 64.7172 54.155C65.1726 51.642 65.9274 49.1417 66.9816 46.6541C68.0273 44.1412 69.3682 41.8391 71.0042 39.7478C72.6571 37.6228 74.3184 36.282 75.9881 35.7255C77.1012 35.3545 78.0119 35.4304 78.7203 35.9533C80.1202 34.2499 81.8067 32.8164 83.78 31.6527C87.0353 22.4443 89.8141 16.0228 92.1164 12.3884C91.5429 12.5233 90.4762 12.7383 88.9161 13.0334C85.6105 13.6573 83.186 14.2265 81.6428 14.7408C80.0996 15.2552 78.8558 15.8243 77.9113 16.4483C78.5353 16.9712 78.9443 17.5235 79.1382 18.1054C79.3237 18.662 79.4249 19.0077 79.4418 19.1426C80.0405 18.7463 80.6055 18.4596 81.1368 18.2826C82.3511 17.8778 83.1142 18.1435 83.4262 19.0795C83.8563 20.3697 83.4093 22.1912 82.0853 24.5439C80.7781 26.8629 79.1885 28.3343 77.3164 28.9583C75.925 29.4221 74.7782 29.4811 73.8759 29.1353C72.9989 28.7811 72.4002 28.1233 72.0797 27.162C71.616 25.7706 71.7973 24.0798 72.6238 22.0897C73.4418 20.0743 74.7827 18.2782 76.6464 16.7013C75.2044 15.8327 73.345 15.7778 71.0681 16.5367C69.3478 17.1101 67.8257 17.8985 66.5017 18.9019C65.2031 19.897 64.229 20.8962 63.5797 21.8997C62.2641 24.0247 61.522 25.7618 61.3533 27.1111L61.2647 27.9839C61.2057 28.2284 61.1003 28.376 60.9485 28.4266C60.7967 28.4772 60.6744 28.3633 60.5817 28.085C60.607 27.2333 60.8389 26.2003 61.2775 24.986C61.7076 23.7464 62.2515 22.6375 62.9093 21.6593C63.5924 20.6727 64.6507 19.6313 66.0843 18.5351C67.5095 17.4136 69.1961 16.5282 71.144 15.8789C73.8004 14.9936 75.9043 15.0653 77.4559 16.0942ZM90.903 32.2723C91.2487 33.3095 91.8727 33.7902 92.775 33.7143C92.7581 33.5794 92.6865 33.3222 92.56 32.9427C92.4251 32.5379 92.2142 32.2428 91.9275 32.0573C91.6324 31.8464 91.371 31.779 91.1433 31.8548C90.9156 31.9307 90.8355 32.0699 90.903 32.2723ZM92.8129 34.3341C91.5311 34.6208 90.6457 34.157 90.1566 32.9426C89.3049 33.2546 88.6556 34.0051 88.2086 35.1941C87.7785 36.3494 87.7026 37.3445 87.9808 38.1793C88.2928 39.1154 88.9421 39.419 89.9288 39.0901C90.5865 38.8709 91.2359 38.289 91.8768 37.3446C92.5093 36.3748 92.8213 35.3713 92.8129 34.3341ZM86.7918 38.9129C86.4545 37.901 86.6274 36.6487 87.3105 35.1562C88.0189 33.6551 88.9255 32.7065 90.0302 32.3102C90.0976 31.7536 90.397 31.3868 90.9283 31.2097C91.4849 31.0242 91.9697 31.0453 92.3829 31.273C92.813 31.467 93.1123 31.817 93.281 32.3229C93.4412 32.8036 93.5213 33.2126 93.5213 33.5499C94.2549 33.3054 95.0181 32.8542 95.8108 32.1965C96.6035 31.5388 97.0589 31.0919 97.177 30.8557L97.4299 30.9822C97.4468 31.0328 97.3835 31.1804 97.2402 31.425C97.0968 31.6695 96.6372 32.1038 95.8614 32.7278C95.0856 33.3518 94.3097 33.8071 93.5339 34.0938C93.4833 35.2913 93.0869 36.4634 92.3448 37.6102C91.5943 38.7318 90.6751 39.4738 89.5872 39.8364C88.0946 40.3339 87.1628 40.0261 86.7918 38.9129ZM106.268 14.713C106.209 14.5359 106.078 14.4811 105.876 14.5485C105.066 14.8183 103.367 17.9848 100.778 24.0479C102.355 22.3698 103.712 20.5399 104.851 18.5583C105.981 16.5513 106.453 15.2695 106.268 14.713ZM94.7817 37.9364C94.6046 37.9954 94.4824 37.9237 94.4149 37.7214C94.339 37.4937 94.377 37.2702 94.5288 37.051C96.0805 33.0202 97.6533 29.1791 99.2472 25.5278C102.604 17.9721 104.99 13.9582 106.407 13.486C106.559 13.4354 106.732 13.4481 106.926 13.524C107.12 13.5999 107.246 13.7264 107.305 13.9035C107.55 14.6371 106.917 16.2393 105.408 18.7101C103.915 21.1471 102.207 23.3185 100.284 25.2242C99.652 26.6999 98.9098 28.4792 98.0581 30.5621C99.0026 29.4321 99.8796 28.7322 100.689 28.4624C101.069 28.3359 101.402 28.3233 101.688 28.4245C102 28.5172 102.266 28.7239 102.485 29.0443C102.679 29.6262 102.464 30.6254 101.84 32.0421C101.208 33.4335 100.959 34.3316 101.094 34.7364C101.186 35.0146 101.41 35.0948 101.764 34.9767C102.498 34.7322 103.333 33.7793 104.269 32.1181C104.311 31.9916 104.37 31.9157 104.446 31.8904C104.547 31.8567 104.619 31.9031 104.661 32.0296C104.762 32.3331 104.404 32.9867 103.586 33.9901C102.793 34.9852 101.992 35.6176 101.182 35.8874C100.626 36.0729 100.255 35.8874 100.069 35.3308C99.8836 34.7743 100.094 33.8045 100.702 32.4216C101.3 31.0133 101.541 30.1321 101.423 29.7779C101.305 29.4237 100.896 29.3774 100.196 29.6387C99.5127 29.8664 98.6146 30.6295 97.5015 31.9282C96.1859 35.0651 95.4775 36.7348 95.3763 36.9371C95.2751 37.1395 95.1907 37.3082 95.1233 37.4431C94.9968 37.7382 94.8829 37.9027 94.7817 37.9364ZM106.955 33.331C107.941 33.0021 108.873 32.1294 109.75 30.7127C110.619 29.2707 111.032 28.1492 110.99 27.3481C110.889 27.0445 110.615 26.8548 110.168 26.7789C109.712 26.6776 109.244 26.7071 108.764 26.8674C107.6 27.2552 106.693 28.1196 106.044 29.4603C105.412 30.7674 105.222 31.8004 105.475 32.5594C105.728 33.3183 106.221 33.5755 106.955 33.331ZM108.903 26.1464C109.788 25.8512 110.627 25.9229 111.42 26.3615C111.445 26.353 111.585 26.0958 111.838 25.5899C111.922 25.2526 112.078 25.046 112.306 24.9701C112.533 24.8942 112.685 24.9701 112.761 25.1978L112.723 25.5899C112.689 25.7417 112.39 26.5301 111.825 27.9553C111.285 29.372 110.973 30.2068 110.889 30.4598C110.83 30.7043 110.868 31.029 111.003 31.4337C111.095 31.712 111.319 31.7921 111.673 31.6741C112.407 31.4296 113.241 30.4767 114.178 28.8155C114.22 28.689 114.279 28.6131 114.355 28.5878C114.456 28.5541 114.527 28.6004 114.57 28.7269C114.671 29.0305 114.312 29.684 113.494 30.6875C112.702 31.6826 111.901 32.315 111.091 32.5848C110.534 32.7703 110.159 32.5721 109.965 31.9903C109.898 31.7879 109.826 31.6993 109.75 31.7246C109.7 31.7415 109.666 31.7668 109.649 31.8005C108.662 33.057 107.6 33.8749 106.461 34.2544C105.348 34.6254 104.623 34.3049 104.286 33.293C103.932 32.2304 104.197 30.9192 105.083 29.3591C105.96 27.7738 107.233 26.7029 108.903 26.1464ZM121.339 22.7603C121.533 23.3422 121.318 24.3414 120.694 25.7581C120.061 27.1495 119.813 28.0476 119.947 28.4524C120.04 28.7307 120.264 28.8108 120.618 28.6927C121.352 28.4482 122.186 27.4953 123.123 25.8341C123.165 25.7076 123.224 25.6317 123.3 25.6064C123.401 25.5727 123.472 25.6191 123.515 25.7456C123.616 26.0491 123.257 26.7027 122.439 27.7061C121.647 28.7012 120.846 29.3336 120.036 29.6034C119.479 29.7889 119.108 29.6034 118.923 29.0469C118.737 28.4903 118.948 27.5205 119.555 26.1376C120.154 24.7293 120.395 23.8481 120.277 23.4939C120.158 23.1398 119.787 23.0807 119.163 23.3168C118.556 23.5192 117.599 24.316 116.292 25.7074C116.047 26.1543 115.558 27.259 114.825 29.0214C114.116 30.7754 113.728 31.6777 113.661 31.7283C113.383 31.8211 113.201 31.7409 113.117 31.488C113.117 31.4036 113.222 31.0874 113.433 30.5393C113.619 29.9996 113.745 29.6623 113.813 29.5274L115.609 24.6702C116.081 23.5571 116.393 22.9752 116.545 22.9246C116.849 22.8234 117.043 22.8993 117.127 23.1523C117.093 23.3041 117.005 23.5444 116.861 23.8733C116.718 24.2022 116.625 24.472 116.583 24.6828C117.721 23.2915 118.733 22.4482 119.619 22.1531C119.998 22.0266 120.331 22.014 120.618 22.1152C120.905 22.2164 121.145 22.4314 121.339 22.7603Z" fill="#29282D"/>
</svg>
